<mxfile host="app.diagrams.net" modified="2023-02-01T13:34:13.603Z" agent="5.0 (Windows)" etag="RzNzTTgubjMgROw42d3r" version="20.8.13" type="github">
  <diagram name="Model" id="Os3DSgaBkLGRmt94mTsT">
    <mxGraphModel dx="1154" dy="626" grid="1" gridSize="10" guides="1" tooltips="1" connect="1" arrows="1" fold="1" page="1" pageScale="1" pageWidth="850" pageHeight="1100" math="0" shadow="0">
      <root>
        <mxCell id="0" />
        <mxCell id="1" parent="0" />
        <mxCell id="94TfgeoZXR2RaqQL-GhP-1" value="User" style="swimlane;fontStyle=1;align=center;verticalAlign=top;childLayout=stackLayout;horizontal=1;startSize=26;horizontalStack=0;resizeParent=1;resizeParentMax=0;resizeLast=0;collapsible=1;marginBottom=0;rounded=1;labelBackgroundColor=none;fillColor=#B1DDF0;strokeColor=#BAC8D3;fontColor=#182E3E;" vertex="1" parent="1">
          <mxGeometry x="50" y="60" width="160" height="114" as="geometry" />
        </mxCell>
        <mxCell id="94TfgeoZXR2RaqQL-GhP-2" value="- mail : String&#xa;- password : String&#xa;- username : String" style="text;strokeColor=none;fillColor=none;align=left;verticalAlign=top;spacingLeft=4;spacingRight=4;overflow=hidden;rotatable=0;points=[[0,0.5],[1,0.5]];portConstraint=eastwest;rounded=1;labelBackgroundColor=none;fontColor=#182E3E;" vertex="1" parent="94TfgeoZXR2RaqQL-GhP-1">
          <mxGeometry y="26" width="160" height="54" as="geometry" />
        </mxCell>
        <mxCell id="94TfgeoZXR2RaqQL-GhP-3" value="" style="line;strokeWidth=1;fillColor=none;align=left;verticalAlign=middle;spacingTop=-1;spacingLeft=3;spacingRight=3;rotatable=0;labelPosition=right;points=[];portConstraint=eastwest;strokeColor=#BAC8D3;rounded=1;labelBackgroundColor=none;fontColor=#182E3E;" vertex="1" parent="94TfgeoZXR2RaqQL-GhP-1">
          <mxGeometry y="80" width="160" height="8" as="geometry" />
        </mxCell>
        <mxCell id="94TfgeoZXR2RaqQL-GhP-4" value="+ method(type): type" style="text;strokeColor=none;fillColor=none;align=left;verticalAlign=top;spacingLeft=4;spacingRight=4;overflow=hidden;rotatable=0;points=[[0,0.5],[1,0.5]];portConstraint=eastwest;rounded=1;labelBackgroundColor=none;fontColor=#182E3E;" vertex="1" parent="94TfgeoZXR2RaqQL-GhP-1">
          <mxGeometry y="88" width="160" height="26" as="geometry" />
        </mxCell>
        <mxCell id="94TfgeoZXR2RaqQL-GhP-5" value="Friend" style="swimlane;fontStyle=1;align=center;verticalAlign=top;childLayout=stackLayout;horizontal=1;startSize=26;horizontalStack=0;resizeParent=1;resizeParentMax=0;resizeLast=0;collapsible=1;marginBottom=0;rounded=1;labelBackgroundColor=none;fillColor=#B1DDF0;strokeColor=#BAC8D3;fontColor=#182E3E;" vertex="1" parent="1">
          <mxGeometry x="240" y="60" width="160" height="104" as="geometry" />
        </mxCell>
        <mxCell id="94TfgeoZXR2RaqQL-GhP-6" value="- user : User&#xa;- friend : User&#xa;" style="text;strokeColor=none;fillColor=none;align=left;verticalAlign=top;spacingLeft=4;spacingRight=4;overflow=hidden;rotatable=0;points=[[0,0.5],[1,0.5]];portConstraint=eastwest;rounded=1;labelBackgroundColor=none;fontColor=#182E3E;" vertex="1" parent="94TfgeoZXR2RaqQL-GhP-5">
          <mxGeometry y="26" width="160" height="44" as="geometry" />
        </mxCell>
        <mxCell id="94TfgeoZXR2RaqQL-GhP-7" value="" style="line;strokeWidth=1;fillColor=none;align=left;verticalAlign=middle;spacingTop=-1;spacingLeft=3;spacingRight=3;rotatable=0;labelPosition=right;points=[];portConstraint=eastwest;strokeColor=#BAC8D3;rounded=1;labelBackgroundColor=none;fontColor=#182E3E;" vertex="1" parent="94TfgeoZXR2RaqQL-GhP-5">
          <mxGeometry y="70" width="160" height="8" as="geometry" />
        </mxCell>
        <mxCell id="94TfgeoZXR2RaqQL-GhP-8" value="+ method(type): type" style="text;strokeColor=none;fillColor=none;align=left;verticalAlign=top;spacingLeft=4;spacingRight=4;overflow=hidden;rotatable=0;points=[[0,0.5],[1,0.5]];portConstraint=eastwest;rounded=1;labelBackgroundColor=none;fontColor=#182E3E;" vertex="1" parent="94TfgeoZXR2RaqQL-GhP-5">
          <mxGeometry y="78" width="160" height="26" as="geometry" />
        </mxCell>
        <mxCell id="94TfgeoZXR2RaqQL-GhP-9" value="Question" style="swimlane;fontStyle=1;align=center;verticalAlign=top;childLayout=stackLayout;horizontal=1;startSize=26;horizontalStack=0;resizeParent=1;resizeParentMax=0;resizeLast=0;collapsible=1;marginBottom=0;rounded=1;labelBackgroundColor=none;fillColor=#B1DDF0;strokeColor=#BAC8D3;fontColor=#182E3E;" vertex="1" parent="1">
          <mxGeometry x="430" y="60" width="160" height="134" as="geometry" />
        </mxCell>
        <mxCell id="94TfgeoZXR2RaqQL-GhP-10" value="- ID : int&#xa;- question : image&#xa;- answer : char&#xa;- type : String" style="text;strokeColor=none;fillColor=none;align=left;verticalAlign=top;spacingLeft=4;spacingRight=4;overflow=hidden;rotatable=0;points=[[0,0.5],[1,0.5]];portConstraint=eastwest;rounded=1;labelBackgroundColor=none;fontColor=#182E3E;" vertex="1" parent="94TfgeoZXR2RaqQL-GhP-9">
          <mxGeometry y="26" width="160" height="74" as="geometry" />
        </mxCell>
        <mxCell id="94TfgeoZXR2RaqQL-GhP-11" value="" style="line;strokeWidth=1;fillColor=none;align=left;verticalAlign=middle;spacingTop=-1;spacingLeft=3;spacingRight=3;rotatable=0;labelPosition=right;points=[];portConstraint=eastwest;strokeColor=#BAC8D3;rounded=1;labelBackgroundColor=none;fontColor=#182E3E;" vertex="1" parent="94TfgeoZXR2RaqQL-GhP-9">
          <mxGeometry y="100" width="160" height="8" as="geometry" />
        </mxCell>
        <mxCell id="94TfgeoZXR2RaqQL-GhP-12" value="+ method(type): type" style="text;strokeColor=none;fillColor=none;align=left;verticalAlign=top;spacingLeft=4;spacingRight=4;overflow=hidden;rotatable=0;points=[[0,0.5],[1,0.5]];portConstraint=eastwest;rounded=1;labelBackgroundColor=none;fontColor=#182E3E;" vertex="1" parent="94TfgeoZXR2RaqQL-GhP-9">
          <mxGeometry y="108" width="160" height="26" as="geometry" />
        </mxCell>
        <mxCell id="94TfgeoZXR2RaqQL-GhP-25" value="Round" style="swimlane;fontStyle=1;align=center;verticalAlign=top;childLayout=stackLayout;horizontal=1;startSize=26;horizontalStack=0;resizeParent=1;resizeParentMax=0;resizeLast=0;collapsible=1;marginBottom=0;strokeColor=#BAC8D3;fontColor=#182E3E;fillColor=#B1DDF0;rounded=1;" vertex="1" parent="1">
          <mxGeometry x="50" y="220" width="160" height="144" as="geometry" />
        </mxCell>
        <mxCell id="94TfgeoZXR2RaqQL-GhP-26" value="- code : String&#xa;- owner : User&#xa;- ownerScore : int&#xa;- questions : Question[]&#xa;- expireDate : Date" style="text;strokeColor=none;fillColor=none;align=left;verticalAlign=top;spacingLeft=4;spacingRight=4;overflow=hidden;rotatable=0;points=[[0,0.5],[1,0.5]];portConstraint=eastwest;fontColor=#182E3E;rounded=1;" vertex="1" parent="94TfgeoZXR2RaqQL-GhP-25">
          <mxGeometry y="26" width="160" height="84" as="geometry" />
        </mxCell>
        <mxCell id="94TfgeoZXR2RaqQL-GhP-27" value="" style="line;strokeWidth=1;fillColor=none;align=left;verticalAlign=middle;spacingTop=-1;spacingLeft=3;spacingRight=3;rotatable=0;labelPosition=right;points=[];portConstraint=eastwest;strokeColor=inherit;fontColor=#182E3E;rounded=1;" vertex="1" parent="94TfgeoZXR2RaqQL-GhP-25">
          <mxGeometry y="110" width="160" height="8" as="geometry" />
        </mxCell>
        <mxCell id="94TfgeoZXR2RaqQL-GhP-28" value="+ method(type): type" style="text;strokeColor=none;fillColor=none;align=left;verticalAlign=top;spacingLeft=4;spacingRight=4;overflow=hidden;rotatable=0;points=[[0,0.5],[1,0.5]];portConstraint=eastwest;fontColor=#182E3E;rounded=1;" vertex="1" parent="94TfgeoZXR2RaqQL-GhP-25">
          <mxGeometry y="118" width="160" height="26" as="geometry" />
        </mxCell>
        <mxCell id="94TfgeoZXR2RaqQL-GhP-29" value="CompleteRound" style="swimlane;fontStyle=1;align=center;verticalAlign=top;childLayout=stackLayout;horizontal=1;startSize=26;horizontalStack=0;resizeParent=1;resizeParentMax=0;resizeLast=0;collapsible=1;marginBottom=0;rounded=1;strokeColor=#BAC8D3;fontColor=#182E3E;fillColor=#B1DDF0;arcSize=50;" vertex="1" parent="1">
          <mxGeometry x="240" y="220" width="160" height="114" as="geometry">
            <mxRectangle x="430" y="220" width="130" height="30" as="alternateBounds" />
          </mxGeometry>
        </mxCell>
        <mxCell id="94TfgeoZXR2RaqQL-GhP-30" value="- opponent : User&#xa;- opponentScore : int&#xa;" style="text;strokeColor=none;fillColor=none;align=left;verticalAlign=top;spacingLeft=4;spacingRight=4;overflow=hidden;rotatable=0;points=[[0,0.5],[1,0.5]];portConstraint=eastwest;fontColor=#182E3E;" vertex="1" parent="94TfgeoZXR2RaqQL-GhP-29">
          <mxGeometry y="26" width="160" height="54" as="geometry" />
        </mxCell>
        <mxCell id="94TfgeoZXR2RaqQL-GhP-31" value="" style="line;strokeWidth=1;fillColor=none;align=left;verticalAlign=middle;spacingTop=-1;spacingLeft=3;spacingRight=3;rotatable=0;labelPosition=right;points=[];portConstraint=eastwest;strokeColor=inherit;rounded=1;fontColor=#182E3E;" vertex="1" parent="94TfgeoZXR2RaqQL-GhP-29">
          <mxGeometry y="80" width="160" height="8" as="geometry" />
        </mxCell>
        <mxCell id="94TfgeoZXR2RaqQL-GhP-32" value="+ method(type): type" style="text;strokeColor=none;fillColor=none;align=left;verticalAlign=top;spacingLeft=4;spacingRight=4;overflow=hidden;rotatable=0;points=[[0,0.5],[1,0.5]];portConstraint=eastwest;fontColor=#182E3E;" vertex="1" parent="94TfgeoZXR2RaqQL-GhP-29">
          <mxGeometry y="88" width="160" height="26" as="geometry" />
        </mxCell>
      </root>
    </mxGraphModel>
  </diagram>
</mxfile>
